{
  "accessors": [
    {
      "bufferView": 2,
      "componentType": 5126,
      "count": 21026,
      "max": [
        1.1402794122695923,
        1.403362512588501,
        5.848721981048584
      ],
      "min": [
        -1.7681200504302979,
        -1.7112818956375122,
        -1.949681482926735e-08
      ],
      "type": "VEC3"
    },
    {
      "bufferView": 2,
      "byteOffset": 252312,
      "componentType": 5126,
      "count": 21026,
      "max": [
        0.9999812841415405,
        0.9999990463256836,
        0.9999974370002747
      ],
      "min": [
        -0.9999964833259583,
        -0.9999958872795105,
        -1.0
      ],
      "type": "VEC3"
    },
    {
      "bufferView": 1,
      "componentType": 5126,
      "count": 21026,
      "max": [
        0.9993929862976074,
        0.991985023021698
      ],
      "min": [
        0.0006070000235922635,
        0.0006070000235922635
      ],
      "type": "VEC2"
    },
    {
      "bufferView": 1,
      "byteOffset": 168208,
      "componentType": 5126,
      "count": 21026,
      "max": [
        0.9104768633842468,
        1.325392246246338
      ],
      "min": [
        0.08952312171459198,
        -0.3328002095222473
      ],
      "type": "VEC2"
    },
    {
      "bufferView": 0,
      "componentType": 5125,
      "count": 107454,
      "type": "SCALAR"
    }
  ],
  "asset": {
    "extras": {
      "author": "Eks.Art (https://sketchfab.com/Eks.Art)",
      "license": "CC-BY-4.0 (http://creativecommons.org/licenses/by/4.0/)",
      "source": "https://sketchfab.com/3d-models/tung-tung-tung-sahur-91ddd9079bd84019ba4a12e01d93a0d6",
      "title": "Tung Tung Tung Sahur"
    },
    "generator": "Sketchfab-16.63.0",
    "version": "2.0"
  },
  "bufferViews": [
    {
      "buffer": 0,
      "byteLength": 429816,
      "name": "floatBufferViews",
      "target": 34963
    },
    {
      "buffer": 0,
      "byteLength": 336416,
      "byteOffset": 429816,
      "byteStride": 8,
      "name": "floatBufferViews",
      "target": 34962
    },
    {
      "buffer": 0,
      "byteLength": 504624,
      "byteOffset": 766232,
      "byteStride": 12,
      "name": "floatBufferViews",
      "target": 34962
    }
  ],
  "buffers": [
    {
      "byteLength": 1270856,
      "uri": "scene.bin"
    }
  ],
  "images": [
    {
      "uri": "textures/Material_baseColor.png"
    }
  ],
  "materials": [
    {
      "doubleSided": true,
      "name": "Material",
      "pbrMetallicRoughness": {
        "baseColorTexture": {
          "index": 0
        },
        "metallicFactor": 0.0,
        "roughnessFactor": 0.8211145618000169
      }
    }
  ],
  "meshes": [
    {
      "name": "model.001_Material_0",
      "primitives": [
        {
          "attributes": {
            "NORMAL": 1,
            "POSITION": 0,
            "TEXCOORD_0": 2,
            "TEXCOORD_1": 3
          },
          "indices": 4,
          "material": 0,
          "mode": 4
        }
      ]
    }
  ],
  "nodes": [
    {
      "children": [
        1
      ],
      "matrix": [
        1.0,
        0.0,
        0.0,
        0.0,
        0.0,
        2.220446049250313e-16,
        -1.0,
        0.0,
        0.0,
        1.0,
        2.220446049250313e-16,
        0.0,
        0.0,
        0.0,
        0.0,
        1.0
      ],
      "name": "Sketchfab_model"
    },
    {
      "children": [
        2
      ],
      "matrix": [
        0.009999999776482582,
        0.0,
        0.0,
        0.0,
        0.0,
        0.0,
        0.009999999776482582,
        0.0,
        0.0,
        -0.009999999776482582,
        0.0,
        0.0,
        0.0,
        0.0,
        0.0,
        1.0
      ],
      "name": "bd465a6a9bd04bb18441cf69b4bd0924.fbx"
    },
    {
      "children": [
        3
      ],
      "name": "RootNode"
    },
    {
      "children": [
        4
      ],
      "matrix": [
        241.92233276367188,
        0.0,
        0.0,
        0.0,
        0.0,
        1.8264627989677116e-05,
        -241.92233276367116,
        0.0,
        0.0,
        241.92233276367116,
        1.8264627989677116e-05,
        0.0,
        0.0,
        0.0,
        0.0,
        1.0
      ],
      "name": "model.001"
    },
    {
      "mesh": 0,
      "name": "model.001_Material_0"
    }
  ],
  "samplers": [
    {
      "magFilter": 9729,
      "minFilter": 9987,
      "wrapS": 10497,
      "wrapT": 10497
    }
  ],
  "scene": 0,
  "scenes": [
    {
      "name": "Sketchfab_Scene",
      "nodes": [
        0
      ]
    }
  ],
  "textures": [
    {
      "sampler": 0,
      "source": 0
    }
  ]
}
